<svg xmlns="http://www.w3.org/2000/svg" xmlns:xlink="http://www.w3.org/1999/xlink" width="300" zoomAndPan="magnify" viewBox="0 0 224.87999 225" height="300" preserveAspectRatio="xMidYMid meet" version="1.0"><defs><clipPath id="6ec6b572bb"><path d="M 82.359375 82.378906 L 109.324219 82.378906 L 109.324219 109.339844 L 82.359375 109.339844 Z M 82.359375 82.378906 " clip-rule="nonzero"/></clipPath><clipPath id="fab055800c"><path d="M 87.609375 82.378906 L 104.078125 82.378906 C 106.976562 82.378906 109.324219 84.726562 109.324219 87.625 L 109.324219 104.09375 C 109.324219 106.992188 106.976562 109.339844 104.078125 109.339844 L 87.609375 109.339844 C 84.710938 109.339844 82.359375 106.992188 82.359375 104.09375 L 82.359375 87.625 C 82.359375 84.726562 84.710938 82.378906 87.609375 82.378906 " clip-rule="nonzero"/></clipPath><clipPath id="842562aac1"><path d="M 82.390625 115.765625 L 109.355469 115.765625 L 109.355469 142.730469 L 82.390625 142.730469 Z M 82.390625 115.765625 " clip-rule="nonzero"/></clipPath><clipPath id="1c431fe480"><path d="M 87.636719 115.765625 L 104.109375 115.765625 C 107.003906 115.765625 109.355469 118.117188 109.355469 121.015625 L 109.355469 137.484375 C 109.355469 140.382812 107.003906 142.730469 104.109375 142.730469 L 87.636719 142.730469 C 84.742188 142.730469 82.390625 140.382812 82.390625 137.484375 L 82.390625 121.015625 C 82.390625 118.117188 84.742188 115.765625 87.636719 115.765625 " clip-rule="nonzero"/></clipPath><clipPath id="99bfcc1c69"><path d="M 115.554688 82.269531 L 142.519531 82.269531 L 142.519531 109.792969 L 115.554688 109.792969 Z M 115.554688 82.269531 " clip-rule="nonzero"/></clipPath><clipPath id="30c128c111"><path d="M 120.800781 82.269531 L 137.273438 82.269531 C 140.171875 82.269531 142.519531 84.617188 142.519531 87.515625 L 142.519531 104.09375 C 142.519531 106.992188 140.171875 109.339844 137.273438 109.339844 L 120.800781 109.339844 C 117.90625 109.339844 115.554688 106.992188 115.554688 104.09375 L 115.554688 87.515625 C 115.554688 84.617188 117.90625 82.269531 120.800781 82.269531 " clip-rule="nonzero"/></clipPath><clipPath id="5b8bbc0e0e"><path d="M 115.554688 115.769531 L 142.519531 115.769531 L 142.519531 142.730469 L 115.554688 142.730469 Z M 115.554688 115.769531 " clip-rule="nonzero"/></clipPath><clipPath id="38634ae3cc"><path d="M 120.800781 115.769531 L 137.273438 115.769531 C 140.171875 115.769531 142.519531 118.117188 142.519531 121.015625 L 142.519531 137.484375 C 142.519531 140.382812 140.171875 142.730469 137.273438 142.730469 L 120.800781 142.730469 C 117.90625 142.730469 115.554688 140.382812 115.554688 137.484375 L 115.554688 121.015625 C 115.554688 118.117188 117.90625 115.769531 120.800781 115.769531 " clip-rule="nonzero"/></clipPath><clipPath id="fe09df7471"><path d="M 47.683594 47.746094 L 177.367188 47.746094 L 177.367188 177.425781 L 47.683594 177.425781 Z M 47.683594 47.746094 " clip-rule="nonzero"/></clipPath><clipPath id="214a724576"><path d="M 112.527344 47.746094 C 76.714844 47.746094 47.683594 76.777344 47.683594 112.585938 C 47.683594 148.394531 76.714844 177.425781 112.527344 177.425781 C 148.335938 177.425781 177.367188 148.394531 177.367188 112.585938 C 177.367188 76.777344 148.335938 47.746094 112.527344 47.746094 " clip-rule="nonzero"/></clipPath></defs><g clip-path="url(#6ec6b572bb)"><g clip-path="url(#fab055800c)"><path fill="#7ea663" d="M 82.359375 82.378906 L 109.324219 82.378906 L 109.324219 109.339844 L 82.359375 109.339844 Z M 82.359375 82.378906 " fill-opacity="1" fill-rule="nonzero"/></g></g><g clip-path="url(#842562aac1)"><g clip-path="url(#1c431fe480)"><path fill="#7ea663" d="M 82.390625 115.765625 L 109.355469 115.765625 L 109.355469 142.730469 L 82.390625 142.730469 Z M 82.390625 115.765625 " fill-opacity="1" fill-rule="nonzero"/></g></g><g clip-path="url(#99bfcc1c69)"><g clip-path="url(#30c128c111)"><path fill="#7ea663" d="M 115.554688 82.269531 L 142.519531 82.269531 L 142.519531 109.230469 L 115.554688 109.230469 Z M 115.554688 82.269531 " fill-opacity="1" fill-rule="nonzero"/></g></g><g clip-path="url(#5b8bbc0e0e)"><g clip-path="url(#38634ae3cc)"><path fill="#7ea663" d="M 115.554688 115.769531 L 142.519531 115.769531 L 142.519531 142.730469 L 115.554688 142.730469 Z M 115.554688 115.769531 " fill-opacity="1" fill-rule="nonzero"/></g></g><g clip-path="url(#fe09df7471)"><g clip-path="url(#214a724576)"><path stroke-linecap="butt" transform="matrix(0.750617, 0, 0, 0.750617, 47.685456, 47.745471)" fill="none" stroke-linejoin="miter" d="M 86.384805 0.000830089 C 38.674044 0.000830089 -0.00248053 38.677355 -0.00248053 86.382912 C -0.00248053 134.088469 38.674044 172.764993 86.384805 172.764993 C 134.090362 172.764993 172.766887 134.088469 172.766887 86.382912 C 172.766887 38.677355 134.090362 0.000830089 86.384805 0.000830089 " stroke="#7ea663" stroke-width="8" stroke-opacity="1" stroke-miterlimit="4"/></g></g></svg>