<?xml version="1.0" standalone="no"?>
<!DOCTYPE svg PUBLIC "-//W3C//DTD SVG 20010904//EN"
 "http://www.w3.org/TR/2001/REC-SVG-20010904/DTD/svg10.dtd">
<svg version="1.0" xmlns="http://www.w3.org/2000/svg"
 width="512.000000pt" height="512.000000pt" viewBox="0 0 512.000000 512.000000"
 preserveAspectRatio="xMidYMid meet">

<g transform="translate(0.000000,512.000000) scale(0.100000,-0.100000)"
fill="#000000" stroke="none">
<path d="M867 4645 c-171 -47 -316 -188 -370 -360 l-22 -70 0 -1100 c0 -1039
1 -1103 18 -1160 28 -91 73 -168 135 -230 64 -65 116 -98 211 -134 65 -24 73
-25 408 -30 325 -6 343 -7 370 -27 63 -46 63 -45 63 -522 0 -479 0 -479 63
-524 43 -31 126 -36 169 -11 18 11 339 242 713 513 374 271 702 510 730 529
l49 36 406 6 c337 5 413 9 453 22 180 61 309 193 364 372 17 57 18 121 18
1160 l0 1100 -22 70 c-55 175 -199 314 -374 360 -77 21 -3308 20 -3382 0z
m713 -1405 c100 -51 104 -190 7 -251 -28 -17 -46 -19 -157 -17 -138 3 -162 12
-196 74 -24 44 -15 126 17 161 39 42 75 52 187 53 84 0 110 -4 142 -20z m1119
2 c48 -24 73 -62 78 -119 5 -57 -19 -102 -69 -133 -28 -17 -51 -20 -148 -20
-97 0 -120 3 -148 20 -70 43 -93 135 -49 201 36 55 76 69 197 69 80 0 113 -4
139 -18z m1121 0 c104 -52 107 -208 6 -256 -25 -12 -64 -16 -149 -16 -102 0
-118 2 -148 23 -92 61 -89 189 7 244 34 20 54 23 144 23 80 0 113 -4 140 -18z"/>
</g>
</svg>
