<?xml version="1.0" standalone="no"?>
<!DOCTYPE svg PUBLIC "-//W3C//DTD SVG 20010904//EN"
 "http://www.w3.org/TR/2001/REC-SVG-20010904/DTD/svg10.dtd">
<svg version="1.0" xmlns="http://www.w3.org/2000/svg"
 width="512.000000pt" height="512.000000pt" viewBox="0 0 512.000000 512.000000"
 preserveAspectRatio="xMidYMid meet">

<g transform="translate(0.000000,512.000000) scale(0.100000,-0.100000)"
fill="#000000" stroke="none">
<path d="M2495 4466 c-37 -17 -70 -52 -84 -89 -6 -16 -11 -77 -11 -136 l0
-109 -54 -26 c-105 -51 -212 -174 -239 -273 -13 -50 51 -38 -542 -103 -253
-28 -472 -53 -488 -56 -65 -13 -77 -35 -423 -726 -312 -624 -334 -672 -334
-721 1 -225 145 -454 351 -555 125 -62 185 -72 449 -72 264 0 325 10 450 71
203 101 349 332 350 556 0 49 -20 92 -276 604 -151 303 -274 553 -272 554 2 1
154 19 338 39 184 20 353 39 376 42 40 6 41 5 73 -45 43 -66 118 -133 187
-167 l54 -26 0 -1054 0 -1054 -508 0 c-559 0 -570 -1 -684 -62 -72 -38 -169
-140 -193 -202 -30 -77 1 -158 74 -196 40 -20 51 -20 1471 -20 1420 0 1431 0
1471 20 73 38 104 119 74 196 -24 62 -121 164 -193 202 -114 61 -125 62 -684
62 l-508 0 0 1054 0 1054 54 26 c105 51 212 174 239 274 6 23 16 42 22 43 5 0
161 17 345 38 184 21 336 37 338 36 1 -1 -115 -238 -258 -526 -289 -581 -276
-545 -245 -694 38 -181 168 -349 335 -433 124 -62 185 -72 450 -72 264 0 325
10 450 71 164 81 298 255 335 434 31 150 52 96 -318 840 -351 705 -358 717
-430 730 -18 4 -257 -19 -532 -49 -275 -31 -503 -56 -507 -56 -3 0 -18 20 -32
44 -34 58 -123 138 -190 171 l-54 27 -4 123 c-3 133 -10 154 -70 198 -34 25
-113 32 -153 13z m128 -640 c103 -43 128 -177 48 -257 -112 -113 -296 -12
-267 146 18 94 128 150 219 111z m1570 -731 l187 -375 -380 0 -380 0 187 375
c104 206 190 375 193 375 3 0 89 -169 193 -375z m-2880 -320 l187 -375 -380 0
-380 0 187 375 c104 206 190 375 193 375 3 0 89 -169 193 -375z"/>
</g>
</svg>
