<svg xmlns="http://www.w3.org/2000/svg" xmlns:xlink="http://www.w3.org/1999/xlink" width="435" zoomAndPan="magnify" viewBox="0 0 326.25 153.749995" height="205" preserveAspectRatio="xMidYMid meet" version="1.0"><defs><g/></defs><g fill="#fff9ef" fill-opacity="1"><g transform="translate(162.145624, 74.879184)"><g/></g></g><g fill="#fff9ef" fill-opacity="1"><g transform="translate(313.062613, 81.472145)"><g/></g></g><g fill="#ffffff" fill-opacity="1"><g transform="translate(21.567505, 76.518645)"><g><path d="M 13.394531 -28.488281 C 11.023438 -28.488281 8.652344 -28.253906 6.914062 -28.253906 C 5.335938 -28.253906 3.28125 -28.371094 2.09375 -28.488281 L 2.09375 -28.253906 C 4.226562 -27.898438 5.253906 -27.265625 5.375 -24.972656 C 5.570312 -22.128906 5.570312 -18.652344 5.570312 -14.183594 C 5.570312 -9.484375 5.570312 -6.320312 5.375 -3.476562 C 5.253906 -1.226562 4.308594 -0.554688 2.132812 -0.199219 L 2.132812 0.0390625 C 3.359375 -0.078125 6.046875 -0.199219 7.902344 -0.199219 C 10.117188 -0.199219 12.84375 0.0390625 14.582031 0.0390625 C 23.828125 0.0390625 29.4375 -6.835938 29.4375 -14.621094 C 29.4375 -22.878906 23.117188 -28.488281 13.394531 -28.488281 Z M 14.898438 -1.421875 C 12.289062 -1.421875 9.640625 -2.015625 9.402344 -4.625 C 9.246094 -6.835938 9.207031 -9.523438 9.207031 -14.027344 C 9.207031 -18.214844 9.246094 -21.296875 9.484375 -26.828125 C 10.746094 -26.988281 12.128906 -27.066406 13.117188 -27.066406 C 21.535156 -27.066406 25.367188 -20.664062 25.367188 -13.871094 C 25.367188 -7.113281 21.574219 -1.421875 14.898438 -1.421875 Z M 14.898438 -1.421875 "/></g></g></g><g fill="#ffffff" fill-opacity="1"><g transform="translate(53.119104, 76.518645)"><g><path d="M 12.84375 -28.210938 L 12.84375 -28.449219 C 10.828125 -28.292969 9.046875 -28.210938 7.46875 -28.210938 C 5.847656 -28.210938 4.109375 -28.292969 2.09375 -28.449219 L 2.09375 -28.210938 C 4.226562 -27.855469 5.292969 -26.988281 5.414062 -24.855469 C 5.609375 -21.296875 5.652344 -18.253906 5.652344 -14.226562 C 5.652344 -10.195312 5.609375 -7.152344 5.414062 -3.597656 C 5.292969 -1.460938 4.226562 -0.59375 2.09375 -0.238281 L 2.09375 0 C 4.109375 -0.15625 5.847656 -0.238281 7.46875 -0.238281 C 9.046875 -0.238281 10.828125 -0.15625 12.84375 0 L 12.84375 -0.238281 C 10.667969 -0.59375 9.640625 -1.421875 9.523438 -3.554688 C 9.285156 -7.347656 9.285156 -9.957031 9.285156 -14.226562 C 9.285156 -18.492188 9.285156 -21.101562 9.523438 -24.894531 C 9.640625 -26.988281 10.667969 -27.855469 12.84375 -28.210938 Z M 12.84375 -28.210938 "/></g></g></g><g fill="#ffffff" fill-opacity="1"><g transform="translate(68.045885, 76.518645)"><g><path d="M 9.800781 0.316406 C 14.816406 0.316406 18.808594 -2.6875 18.808594 -7.429688 C 18.808594 -15.488281 7.074219 -17.109375 7.074219 -23.234375 C 7.074219 -25.367188 8.535156 -27.265625 11.65625 -27.265625 C 13.949219 -27.265625 16.28125 -26.199219 16.953125 -22.523438 L 17.1875 -22.523438 C 16.953125 -24.023438 16.992188 -25.921875 17.1875 -27.304688 C 15.882812 -28.054688 14.105469 -28.765625 11.734375 -28.765625 C 7.546875 -28.765625 3.515625 -26.554688 3.515625 -22.007812 C 3.515625 -14.304688 15.210938 -12.761719 15.210938 -5.925781 C 15.210938 -2.648438 12.683594 -1.183594 9.839844 -1.183594 C 6.835938 -1.183594 3.953125 -2.925781 3.121094 -6.992188 L 2.882812 -6.992188 C 3.042969 -5.175781 3.003906 -3.714844 2.882812 -2.015625 C 4.386719 -0.910156 6.558594 0.316406 9.800781 0.316406 Z M 9.800781 0.316406 "/></g></g></g><g fill="#ffffff" fill-opacity="1"><g transform="translate(89.843754, 76.518645)"><g><path d="M 17.625 0.316406 C 21.296875 0.316406 24.894531 -0.59375 26.988281 -1.460938 C 26.75 -3.121094 26.710938 -5.136719 26.988281 -7.429688 L 26.75 -7.429688 C 25.800781 -2.449219 21.929688 -1.226562 18.175781 -1.226562 C 9.679688 -1.226562 6.203125 -8.019531 6.203125 -14.9375 C 6.203125 -21.890625 10.195312 -27.226562 17.78125 -27.226562 C 21.652344 -27.226562 24.816406 -25.921875 26.039062 -21.457031 L 26.277344 -21.457031 C 26.078125 -23.3125 26.039062 -25.128906 26.277344 -27.027344 C 24.0625 -28.015625 21.140625 -28.765625 17.742188 -28.765625 C 8.496094 -28.765625 2.171875 -22.878906 2.171875 -14.226562 C 2.171875 -5.652344 8.101562 0.316406 17.625 0.316406 Z M 17.625 0.316406 "/></g></g></g><g fill="#ffffff" fill-opacity="1"><g transform="translate(119.697349, 76.518645)"><g><path d="M 17.1875 0.316406 C 25.644531 0.316406 31.964844 -5.808594 31.964844 -14.226562 C 31.964844 -22.523438 25.488281 -28.765625 16.953125 -28.765625 C 8.535156 -28.765625 2.171875 -22.640625 2.171875 -14.226562 C 2.171875 -5.925781 8.613281 0.316406 17.1875 0.316406 Z M 17.503906 -1.144531 C 10.472656 -1.144531 6.125 -7.941406 6.125 -15.054688 C 6.125 -22.007812 10.433594 -27.304688 16.636719 -27.304688 C 23.667969 -27.304688 27.976562 -20.507812 27.976562 -13.394531 C 27.976562 -6.441406 23.667969 -1.144531 17.503906 -1.144531 Z M 17.503906 -1.144531 "/></g></g></g><g fill="#ffffff" fill-opacity="1"><g transform="translate(153.776237, 76.518645)"><g><path d="M 25.527344 -28.253906 C 24.0625 -28.253906 22.800781 -28.332031 20.902344 -28.488281 L 20.902344 -28.253906 C 22.878906 -28.015625 24.0625 -27.304688 24.183594 -24.972656 C 24.339844 -21.613281 24.417969 -14.898438 24.417969 -11.023438 C 24.417969 -4.265625 21.652344 -1.34375 16.636719 -1.34375 C 11.378906 -1.34375 8.8125 -4.542969 8.8125 -11.417969 C 8.8125 -16.28125 8.8125 -21.21875 9.046875 -25.011719 C 9.167969 -27.183594 10.234375 -27.855469 12.367188 -28.253906 L 12.367188 -28.488281 C 10.351562 -28.332031 8.613281 -28.253906 6.992188 -28.253906 C 5.375 -28.253906 3.675781 -28.332031 1.621094 -28.488281 L 1.621094 -28.253906 C 3.792969 -27.855469 4.820312 -27.144531 4.9375 -25.011719 C 5.175781 -21.378906 5.175781 -16.476562 5.175781 -11.578125 C 5.175781 -3.871094 9.046875 0.316406 16.082031 0.316406 C 22.917969 0.316406 26.59375 -3.636719 26.59375 -11.183594 C 26.59375 -15.6875 26.671875 -21.378906 26.871094 -25.011719 C 26.988281 -27.304688 28.132812 -28.015625 30.109375 -28.253906 L 30.109375 -28.488281 C 28.210938 -28.332031 26.871094 -28.253906 25.527344 -28.253906 Z M 25.527344 -28.253906 "/></g></g></g><g fill="#ffffff" fill-opacity="1"><g transform="translate(185.525281, 76.518645)"><g><path d="M 27.34375 -28.253906 C 26.039062 -28.253906 24.773438 -28.332031 22.878906 -28.488281 L 22.878906 -28.253906 C 24.816406 -27.898438 25.882812 -27.183594 26.039062 -24.933594 C 26.238281 -21.691406 26.316406 -19.28125 26.316406 -14.183594 L 26.316406 -7.46875 C 19.441406 -14.304688 12.488281 -21.378906 5.492188 -28.765625 L 5.414062 -28.765625 C 5.53125 -24.65625 5.53125 -19.046875 5.53125 -14.9375 C 5.53125 -9.640625 5.414062 -7.035156 5.214844 -3.554688 C 5.097656 -1.265625 4.070312 -0.554688 2.09375 -0.199219 L 2.09375 0.0390625 C 4.03125 -0.117188 5.136719 -0.199219 6.480469 -0.199219 C 7.824219 -0.199219 9.046875 -0.117188 10.984375 0.0390625 L 10.984375 -0.199219 C 9.046875 -0.554688 7.980469 -1.265625 7.863281 -3.554688 C 7.664062 -7.074219 7.585938 -9.640625 7.585938 -14.9375 L 7.585938 -21.019531 C 14.898438 -13.910156 21.851562 -6.796875 28.332031 0.316406 L 28.410156 0.316406 C 28.292969 -4.265625 28.292969 -9.761719 28.292969 -14.027344 C 28.292969 -19.164062 28.410156 -21.652344 28.609375 -24.972656 C 28.726562 -27.183594 29.792969 -27.898438 31.769531 -28.253906 L 31.769531 -28.488281 C 29.871094 -28.332031 28.6875 -28.253906 27.34375 -28.253906 Z M 27.34375 -28.253906 "/></g></g></g><g fill="#ffffff" fill-opacity="1"><g transform="translate(219.367254, 76.518645)"><g><path d="M 26.789062 -29.554688 C 26.59375 -28.84375 26.238281 -28.726562 25.488281 -28.648438 C 24.0625 -28.449219 16.992188 -28.332031 14.183594 -28.332031 C 11.378906 -28.332031 5.058594 -28.449219 3.792969 -28.609375 C 3.320312 -28.648438 3.121094 -28.726562 3.160156 -29.636719 L 2.925781 -29.636719 C 2.648438 -27.738281 2.09375 -24.933594 1.621094 -23.550781 L 1.855469 -23.511719 C 2.488281 -25.210938 2.964844 -26.316406 4.859375 -26.554688 C 6.402344 -26.710938 9.601562 -26.871094 12.25 -26.910156 C 12.40625 -23.074219 12.445312 -18.53125 12.445312 -14.105469 C 12.445312 -10.074219 12.445312 -6.953125 12.25 -3.398438 C 12.128906 -1.226562 11.0625 -0.433594 8.929688 -0.078125 L 8.929688 0.15625 C 10.945312 0 12.683594 -0.078125 14.265625 -0.078125 C 15.882812 -0.078125 17.625 0 19.636719 0.15625 L 19.636719 -0.078125 C 17.464844 -0.433594 16.4375 -1.226562 16.320312 -3.359375 C 16.121094 -7.152344 16.082031 -9.800781 16.082031 -14.105469 C 16.082031 -18.847656 16.121094 -23.195312 16.28125 -26.910156 C 18.964844 -26.871094 22.207031 -26.75 23.746094 -26.554688 C 25.566406 -26.355469 25.800781 -25.367188 25.644531 -23.707031 L 25.882812 -23.707031 C 26.039062 -25.171875 26.472656 -27.542969 27.027344 -29.554688 Z M 26.789062 -29.554688 "/></g></g></g><g fill="#ffffff" fill-opacity="1"><g transform="translate(146.456034, 113.878755)"><g><path d="M 13.394531 -28.488281 C 11.023438 -28.488281 8.652344 -28.253906 6.914062 -28.253906 C 5.335938 -28.253906 3.28125 -28.371094 2.09375 -28.488281 L 2.09375 -28.253906 C 4.226562 -27.898438 5.253906 -27.265625 5.375 -24.972656 C 5.570312 -22.128906 5.570312 -18.652344 5.570312 -14.183594 C 5.570312 -9.484375 5.570312 -6.320312 5.375 -3.476562 C 5.253906 -1.226562 4.308594 -0.554688 2.132812 -0.199219 L 2.132812 0.0390625 C 3.359375 -0.078125 6.046875 -0.199219 7.902344 -0.199219 C 10.117188 -0.199219 12.84375 0.0390625 14.582031 0.0390625 C 23.828125 0.0390625 29.4375 -6.835938 29.4375 -14.621094 C 29.4375 -22.878906 23.117188 -28.488281 13.394531 -28.488281 Z M 14.898438 -1.421875 C 12.289062 -1.421875 9.640625 -2.015625 9.402344 -4.625 C 9.246094 -6.835938 9.207031 -9.523438 9.207031 -14.027344 C 9.207031 -18.214844 9.246094 -21.296875 9.484375 -26.828125 C 10.746094 -26.988281 12.128906 -27.066406 13.117188 -27.066406 C 21.535156 -27.066406 25.367188 -20.664062 25.367188 -13.871094 C 25.367188 -7.113281 21.574219 -1.421875 14.898438 -1.421875 Z M 14.898438 -1.421875 "/></g></g></g><g fill="#ffffff" fill-opacity="1"><g transform="translate(178.007634, 113.878755)"><g><path d="M 12.84375 -28.210938 L 12.84375 -28.449219 C 10.828125 -28.292969 9.046875 -28.210938 7.46875 -28.210938 C 5.847656 -28.210938 4.109375 -28.292969 2.09375 -28.449219 L 2.09375 -28.210938 C 4.226562 -27.855469 5.292969 -26.988281 5.414062 -24.855469 C 5.609375 -21.296875 5.652344 -18.253906 5.652344 -14.226562 C 5.652344 -10.195312 5.609375 -7.152344 5.414062 -3.597656 C 5.292969 -1.460938 4.226562 -0.59375 2.09375 -0.238281 L 2.09375 0 C 4.109375 -0.15625 5.847656 -0.238281 7.46875 -0.238281 C 9.046875 -0.238281 10.828125 -0.15625 12.84375 0 L 12.84375 -0.238281 C 10.667969 -0.59375 9.640625 -1.421875 9.523438 -3.554688 C 9.285156 -7.347656 9.285156 -9.957031 9.285156 -14.226562 C 9.285156 -18.492188 9.285156 -21.101562 9.523438 -24.894531 C 9.640625 -26.988281 10.667969 -27.855469 12.84375 -28.210938 Z M 12.84375 -28.210938 "/></g></g></g><g fill="#ffffff" fill-opacity="1"><g transform="translate(192.934415, 113.878755)"><g><path d="M 17.226562 -13.238281 C 19.992188 -14.738281 21.535156 -17.582031 21.535156 -20.625 C 21.535156 -25.050781 18.335938 -28.410156 12.210938 -28.410156 C 10.746094 -28.410156 8.96875 -28.253906 7.191406 -28.253906 C 5.570312 -28.253906 4.070312 -28.332031 2.132812 -28.488281 L 2.132812 -28.253906 C 4.265625 -27.9375 5.292969 -27.304688 5.453125 -25.128906 C 5.652344 -22.007812 5.652344 -16.910156 5.652344 -14.226562 C 5.652344 -10.195312 5.609375 -7.074219 5.414062 -3.515625 C 5.292969 -1.382812 4.226562 -0.554688 2.09375 -0.199219 L 2.09375 0.0390625 C 4.109375 -0.117188 5.847656 -0.199219 7.46875 -0.199219 C 9.046875 -0.199219 10.828125 -0.117188 12.84375 0.0390625 L 12.84375 -0.199219 C 10.667969 -0.59375 9.640625 -1.382812 9.523438 -3.515625 C 9.324219 -6.636719 9.285156 -9.007812 9.285156 -12.171875 C 10.117188 -12.089844 11.222656 -12.011719 12.171875 -12.011719 C 12.644531 -12.011719 13.078125 -12.050781 13.515625 -12.089844 C 19.914062 -2.609375 18.136719 0 29.238281 0 L 29.238281 -0.238281 C 24.773438 -0.316406 22.40625 -4.625 17.226562 -13.238281 Z M 11.734375 -13.238281 C 10.746094 -13.238281 9.957031 -13.355469 9.285156 -13.472656 L 9.285156 -14.226562 C 9.285156 -18.214844 9.285156 -20.980469 9.523438 -26.75 C 10.273438 -26.828125 10.984375 -26.910156 11.734375 -26.910156 C 16.082031 -26.910156 17.820312 -23.472656 17.820312 -20.035156 C 17.820312 -17.308594 16.714844 -13.238281 11.734375 -13.238281 Z M 11.734375 -13.238281 "/></g></g></g><g fill="#ffffff" fill-opacity="1"><g transform="translate(221.287418, 113.878755)"><g><path d="M 20.230469 -5.847656 L 19.992188 -5.886719 C 19.164062 -2.371094 17.859375 -1.699219 14.621094 -1.699219 C 11.578125 -1.699219 9.601562 -1.9375 9.402344 -4.625 C 9.285156 -6.757812 9.246094 -9.917969 9.246094 -14.226562 L 9.246094 -14.34375 C 10.667969 -14.34375 12.128906 -14.34375 13.75 -14.304688 C 16.515625 -14.226562 16.910156 -13.472656 17.425781 -11.578125 L 17.664062 -11.617188 C 17.503906 -12.722656 17.425781 -13.910156 17.425781 -15.015625 C 17.425781 -16.121094 17.542969 -17.308594 17.664062 -18.453125 L 17.425781 -18.492188 C 16.992188 -16.753906 16.476562 -15.6875 13.75 -15.648438 C 11.695312 -15.609375 10.433594 -15.609375 9.246094 -15.648438 C 9.246094 -18.886719 9.285156 -21.457031 9.484375 -26.710938 C 11.183594 -26.910156 12.683594 -26.949219 13.910156 -26.949219 C 17.703125 -26.949219 19.242188 -26.238281 19.835938 -23.074219 L 20.074219 -23.074219 C 19.914062 -24.933594 19.953125 -26.949219 20.074219 -28.488281 C 17.78125 -28.332031 14.5 -28.253906 11.65625 -28.253906 C 7.902344 -28.253906 4.542969 -28.292969 2.132812 -28.488281 L 2.132812 -28.253906 C 4.226562 -27.898438 5.292969 -27.027344 5.414062 -24.855469 C 5.609375 -21.296875 5.609375 -18.097656 5.609375 -14.226562 C 5.609375 -9.878906 5.609375 -7.191406 5.414062 -3.554688 C 5.292969 -1.265625 4.1875 -0.554688 2.09375 -0.199219 L 2.09375 0.0390625 C 4.464844 -0.15625 9.167969 -0.199219 11.65625 -0.199219 C 14.304688 -0.199219 16.714844 -0.238281 20.230469 0 C 20.035156 -2.054688 20.035156 -3.910156 20.230469 -5.847656 Z M 20.230469 -5.847656 "/></g></g></g><g fill="#ffffff" fill-opacity="1"><g transform="translate(244.348931, 113.878755)"><g><path d="M 17.625 0.316406 C 21.296875 0.316406 24.894531 -0.59375 26.988281 -1.460938 C 26.75 -3.121094 26.710938 -5.136719 26.988281 -7.429688 L 26.75 -7.429688 C 25.800781 -2.449219 21.929688 -1.226562 18.175781 -1.226562 C 9.679688 -1.226562 6.203125 -8.019531 6.203125 -14.9375 C 6.203125 -21.890625 10.195312 -27.226562 17.78125 -27.226562 C 21.652344 -27.226562 24.816406 -25.921875 26.039062 -21.457031 L 26.277344 -21.457031 C 26.078125 -23.3125 26.039062 -25.128906 26.277344 -27.027344 C 24.0625 -28.015625 21.140625 -28.765625 17.742188 -28.765625 C 8.496094 -28.765625 2.171875 -22.878906 2.171875 -14.226562 C 2.171875 -5.652344 8.101562 0.316406 17.625 0.316406 Z M 17.625 0.316406 "/></g></g></g><g fill="#ffffff" fill-opacity="1"><g transform="translate(274.202526, 113.878755)"><g><path d="M 26.789062 -29.554688 C 26.59375 -28.84375 26.238281 -28.726562 25.488281 -28.648438 C 24.0625 -28.449219 16.992188 -28.332031 14.183594 -28.332031 C 11.378906 -28.332031 5.058594 -28.449219 3.792969 -28.609375 C 3.320312 -28.648438 3.121094 -28.726562 3.160156 -29.636719 L 2.925781 -29.636719 C 2.648438 -27.738281 2.09375 -24.933594 1.621094 -23.550781 L 1.855469 -23.511719 C 2.488281 -25.210938 2.964844 -26.316406 4.859375 -26.554688 C 6.402344 -26.710938 9.601562 -26.871094 12.25 -26.910156 C 12.40625 -23.074219 12.445312 -18.53125 12.445312 -14.105469 C 12.445312 -10.074219 12.445312 -6.953125 12.25 -3.398438 C 12.128906 -1.226562 11.0625 -0.433594 8.929688 -0.078125 L 8.929688 0.15625 C 10.945312 0 12.683594 -0.078125 14.265625 -0.078125 C 15.882812 -0.078125 17.625 0 19.636719 0.15625 L 19.636719 -0.078125 C 17.464844 -0.433594 16.4375 -1.226562 16.320312 -3.359375 C 16.121094 -7.152344 16.082031 -9.800781 16.082031 -14.105469 C 16.082031 -18.847656 16.121094 -23.195312 16.28125 -26.910156 C 18.964844 -26.871094 22.207031 -26.75 23.746094 -26.554688 C 25.566406 -26.355469 25.800781 -25.367188 25.644531 -23.707031 L 25.882812 -23.707031 C 26.039062 -25.171875 26.472656 -27.542969 27.027344 -29.554688 Z M 26.789062 -29.554688 "/></g></g></g></svg>