<?xml version="1.0" standalone="no"?>
<!DOCTYPE svg PUBLIC "-//W3C//DTD SVG 20010904//EN"
 "http://www.w3.org/TR/2001/REC-SVG-20010904/DTD/svg10.dtd">
<svg version="1.0" xmlns="http://www.w3.org/2000/svg"
 width="512.000000pt" height="512.000000pt" viewBox="0 0 512.000000 512.000000"
 preserveAspectRatio="xMidYMid meet">

<g transform="translate(0.000000,512.000000) scale(0.100000,-0.100000)"
fill="#000000" stroke="none">
<path d="M432 3959 c-111 -56 -124 -211 -24 -287 l35 -27 233 -5 232 -5 39
-31 c72 -57 92 -138 53 -214 -37 -73 -65 -84 -230 -90 -148 -6 -172 -12 -218
-54 -78 -70 -69 -194 19 -258 38 -28 91 -37 220 -38 104 0 120 -2 150 -23 115
-78 101 -239 -26 -298 -37 -17 -72 -19 -413 -19 -414 0 -419 -1 -467 -65 -64
-83 -35 -209 58 -254 42 -20 58 -21 423 -21 374 0 380 -1 418 -23 47 -26 86
-93 86 -147 0 -57 -39 -120 -90 -147 -39 -21 -56 -23 -183 -23 -122 0 -146 -3
-184 -21 -119 -57 -123 -231 -8 -296 40 -23 42 -23 399 -20 l359 2 32 76 c95
227 297 382 537 412 165 21 310 -26 423 -137 92 -91 145 -217 145 -346 l0 -50
508 0 507 0 18 63 c57 194 238 377 441 444 109 36 269 38 360 5 185 -68 302
-217 324 -414 l7 -63 45 3 c97 7 185 66 255 171 80 121 104 205 170 600 37
217 42 291 24 356 -17 59 -88 215 -159 345 -148 270 -245 387 -378 454 -108
54 -179 67 -416 74 l-209 7 -12 55 c-34 169 -165 286 -351 312 -53 7 -579 12
-1594 15 l-1515 4 -43 -22z m1399 -630 c25 -25 19 -64 -13 -91 -17 -15 -41
-18 -148 -18 l-128 0 -6 -40 c-3 -22 -9 -58 -12 -80 l-6 -40 98 0 c77 0 101
-4 116 -17 21 -19 22 -33 7 -66 -17 -36 -50 -47 -148 -47 l-89 0 -5 -32 c-4
-18 -11 -70 -18 -116 -14 -98 -35 -132 -83 -132 -40 0 -56 15 -56 54 0 56 79
585 90 606 18 34 45 39 218 39 151 1 163 0 183 -20z m486 6 c33 -10 61 -26 77
-46 85 -101 39 -299 -88 -374 -16 -9 -15 -17 13 -97 37 -104 38 -112 6 -143
-27 -28 -76 -33 -94 -11 -7 8 -29 61 -49 118 l-37 103 -72 3 c-81 3 -75 11
-89 -113 -7 -67 -25 -109 -49 -119 -33 -12 -65 -6 -80 17 -13 21 -11 51 27
322 53 381 35 355 240 355 100 0 160 -5 195 -15z m667 2 c23 -17 24 -62 1 -87
-16 -17 -34 -20 -163 -22 l-146 -3 -6 -25 c-4 -14 -10 -46 -13 -72 l-6 -46
115 -4 c101 -3 117 -6 130 -22 20 -29 17 -54 -11 -81 -23 -24 -30 -25 -138
-25 l-115 0 -11 -75 c-6 -42 -11 -82 -11 -90 0 -13 24 -15 143 -15 157 0 167
-3 167 -56 0 -59 -20 -64 -232 -64 -204 0 -218 4 -218 58 0 56 78 580 89 601
7 12 22 26 34 31 37 15 370 12 391 -3z m548 -4 c24 -21 23 -58 -2 -83 -18 -18
-33 -20 -164 -20 -164 0 -150 8 -162 -92 l-6 -58 98 0 c134 0 167 -19 150 -84
-9 -35 -48 -46 -161 -46 -58 0 -105 -1 -106 -2 0 -2 -6 -42 -13 -90 l-12 -88
142 0 c116 0 145 -3 158 -16 22 -21 20 -56 -4 -82 -20 -21 -28 -22 -215 -22
-192 0 -195 0 -210 23 -13 21 -11 50 28 327 55 384 28 350 279 350 155 0 184
-2 200 -17z m800 6 c74 -16 154 -57 202 -104 70 -68 275 -420 276 -473 0 -31
-25 -77 -52 -96 -20 -14 -81 -16 -470 -16 l-447 0 4 28 c6 30 85 652 85 664 0
12 342 9 402 -3z"/>
<path d="M2046 3208 c-8 -34 -26 -165 -26 -182 0 -13 16 -16 98 -16 106 1 132
9 163 56 22 33 25 102 6 128 -17 23 -75 35 -164 36 -67 0 -73 -2 -77 -22z"/>
<path d="M144 3271 c-89 -54 -115 -169 -57 -250 24 -33 98 -71 138 -71 40 0
114 38 138 71 79 109 -2 269 -137 269 -32 0 -62 -7 -82 -19z"/>
<path d="M1797 1870 c-194 -69 -321 -253 -304 -440 29 -324 454 -395 669 -111
145 190 103 443 -89 538 -77 37 -193 43 -276 13z"/>
<path d="M3986 1879 c-111 -27 -244 -138 -292 -244 -57 -124 -54 -241 9 -346
77 -129 234 -180 396 -130 122 38 218 122 275 241 28 59 31 74 31 165 0 89 -3
105 -27 150 -58 109 -151 166 -278 171 -41 2 -92 -1 -114 -7z"/>
</g>
</svg>
