<svg xmlns="http://www.w3.org/2000/svg" xmlns:xlink="http://www.w3.org/1999/xlink" width="300" zoomAndPan="magnify" viewBox="0 0 224.87999 225" height="300" preserveAspectRatio="xMidYMid meet" version="1.0"><defs><clipPath id="c0fc583b99"><path d="M 79 78 L 146 78 L 146 146 L 79 146 Z M 79 78 " clip-rule="nonzero"/></clipPath><clipPath id="80cf4c4df6"><path d="M 131.570312 74.570312 L 150.453125 93.453125 L 93.304688 150.601562 L 74.421875 131.71875 Z M 131.570312 74.570312 " clip-rule="nonzero"/></clipPath><clipPath id="f03b1d8d5a"><path d="M 138.988281 81.992188 L 142.898438 85.902344 C 146.996094 90 146.996094 96.644531 142.898438 100.742188 L 100.851562 142.789062 C 96.753906 146.886719 90.109375 146.886719 86.011719 142.789062 L 82.101562 138.878906 C 78.003906 134.78125 78.003906 128.136719 82.101562 124.039062 L 124.148438 81.992188 C 128.246094 77.894531 134.890625 77.894531 138.988281 81.992188 " clip-rule="nonzero"/></clipPath><clipPath id="f387d5793c"><path d="M 79 79 L 146 79 L 146 146 L 79 146 Z M 79 79 " clip-rule="nonzero"/></clipPath><clipPath id="d27166d451"><path d="M 74.6875 93.429688 L 93.570312 74.546875 L 150.714844 131.691406 L 131.832031 150.574219 Z M 74.6875 93.429688 " clip-rule="nonzero"/></clipPath><clipPath id="2f0ec77b22"><path d="M 82.109375 86.007812 L 86.019531 82.097656 C 90.117188 78 96.761719 78 100.859375 82.097656 L 142.90625 124.144531 C 147.003906 128.246094 147.003906 134.890625 142.90625 138.988281 L 138.996094 142.898438 C 134.898438 146.996094 128.253906 146.996094 124.15625 142.898438 L 82.109375 100.851562 C 78.011719 96.75 78.011719 90.105469 82.109375 86.007812 " clip-rule="nonzero"/></clipPath><clipPath id="f9b4574df3"><path d="M 47.683594 47.746094 L 177.367188 47.746094 L 177.367188 177.425781 L 47.683594 177.425781 Z M 47.683594 47.746094 " clip-rule="nonzero"/></clipPath><clipPath id="10f7499048"><path d="M 112.527344 47.746094 C 76.714844 47.746094 47.683594 76.777344 47.683594 112.585938 C 47.683594 148.394531 76.714844 177.425781 112.527344 177.425781 C 148.335938 177.425781 177.367188 148.394531 177.367188 112.585938 C 177.367188 76.777344 148.335938 47.746094 112.527344 47.746094 " clip-rule="nonzero"/></clipPath></defs><g clip-path="url(#c0fc583b99)"><g clip-path="url(#80cf4c4df6)"><g clip-path="url(#f03b1d8d5a)"><path fill="#7ea663" d="M 131.570312 74.570312 L 150.453125 93.453125 L 93.804688 150.101562 L 74.917969 131.21875 Z M 131.570312 74.570312 " fill-opacity="1" fill-rule="nonzero"/></g></g></g><g clip-path="url(#f387d5793c)"><g clip-path="url(#d27166d451)"><g clip-path="url(#2f0ec77b22)"><path fill="#7ea663" d="M 74.6875 93.429688 L 93.570312 74.546875 L 150.21875 131.195312 L 131.335938 150.078125 Z M 74.6875 93.429688 " fill-opacity="1" fill-rule="nonzero"/></g></g></g><g clip-path="url(#f9b4574df3)"><g clip-path="url(#10f7499048)"><path stroke-linecap="butt" transform="matrix(0.750617, 0, 0, 0.750617, 47.685456, 47.745478)" fill="none" stroke-linejoin="miter" d="M 86.384805 0.000820502 C 38.674044 0.000820502 -0.00248053 38.677345 -0.00248053 86.382902 C -0.00248053 134.088459 38.674044 172.764984 86.384805 172.764984 C 134.090362 172.764984 172.766887 134.088459 172.766887 86.382902 C 172.766887 38.677345 134.090362 0.000820502 86.384805 0.000820502 " stroke="#7ea663" stroke-width="8" stroke-opacity="1" stroke-miterlimit="4"/></g></g></svg>