<?xml version="1.0" standalone="no"?>
<!DOCTYPE svg PUBLIC "-//W3C//DTD SVG 1.1//EN" "http://www.w3.org/Graphics/SVG/1.1/DTD/svg11.dtd">
<svg xmlns="http://www.w3.org/2000/svg" width="91" height="90" viewBox="0 0 91 90" fill="none" class="svg replaced-svg">
    <g clip-path="url(#clip0_1_2)">
    <path d="M90.6482 87.1363H88.044V89.7955H90.6482V87.1363Z" fill="#4B725A"/>
    <path d="M88.0854 87.1773H90.7722V89.8364H88.0854V87.1773Z" fill="#4B725A"/>
    <path d="M2.93483 2.86363H0.289377V87.2182H2.93483V2.86363Z" fill="#4B725A"/>
    <path d="M0.165352 2.86363H2.89347V87.1773H0.165352V2.86363Z" fill="#4B725A"/>
    <path d="M2.93483 87.1363H0.289377V89.7955H2.93483V87.1363Z" fill="#4B725A"/>
    <path d="M0.165352 87.1773H2.89347V89.8364H0.165352V87.1773Z" fill="#4B725A"/>
    <path d="M90.6482 2.86363H88.044V87.2182H90.6482V2.86363Z" fill="#4B725A"/>
    <path d="M88.0854 2.86363H90.7722V87.1773H88.0854V2.86363Z" fill="#4B725A"/>
    <path d="M88.1267 87.1363H2.89346V89.7955H88.1267V87.1363Z" fill="#4B725A"/>
    <path d="M2.89346 87.1773H88.0854V89.8364H2.89346V87.1773Z" fill="#4B725A"/>
    <path d="M90.6482 0.163635H88.044V2.90454H90.6482V0.163635Z" fill="#4B725A"/>
    <path d="M88.0854 0.163635H90.7722V2.86363H88.0854V0.163635Z" fill="#4B725A"/>
    <path d="M2.93483 0.163635H0.289377V2.90454H2.93483V0.163635Z" fill="#4B725A"/>
    <path d="M0.165352 0.163635H2.89347V2.86363H0.165352V0.163635Z" fill="#4B725A"/>
    <path d="M88.1267 0.163635H2.89346V2.90454H88.1267V0.163635Z" fill="#4B725A"/>
    <path d="M2.89346 0.163635H88.0854V2.86363H2.89346V0.163635Z" fill="#4B725A"/>
    <path d="M26.929 17.5056C28.4998 17.5056 29.6572 17.9556 30.4013 18.8964C31.1453 19.7964 31.5173 21.0237 31.5173 22.5783V24.3783H29.3679V22.4556C29.3679 21.5556 29.1611 20.8192 28.7891 20.3283C28.4171 19.8373 27.7972 19.551 26.9704 19.551C26.1437 19.551 25.565 19.7964 25.193 20.3283C24.821 20.8192 24.6144 21.5556 24.6144 22.4556V33.051C24.6144 33.951 24.821 34.6873 25.193 35.1783C25.565 35.6692 26.185 35.9556 26.9704 35.9556C27.7972 35.9556 28.4171 35.7101 28.7891 35.1783C29.1611 34.6873 29.3679 33.951 29.3679 33.051V30.4328H31.5173V32.9283C31.5173 34.4419 31.1453 35.6692 30.4013 36.6101C29.6572 37.5101 28.4998 38.001 26.929 38.001C25.3996 38.001 24.2423 37.551 23.4983 36.6101C22.7543 35.7101 22.3822 34.4828 22.3822 32.9283V22.5373C22.3822 21.7601 22.4649 21.0646 22.6716 20.451C22.8369 19.8373 23.1263 19.3056 23.4983 18.8556C23.8703 18.4056 24.3663 18.0783 24.9037 17.8329C25.4824 17.6283 26.1437 17.5056 26.929 17.5056Z" fill="#4B725A"/>
    <path d="M43.0866 33.7056L42.3012 37.7556H40.2344L44.12 17.6692H47.3855L51.2709 37.7556H48.9975L48.2122 33.7056H43.0866ZM43.376 31.7828H47.8815L45.6081 20.2056L43.376 31.7828Z" fill="#4B725A"/>
    <path d="M67.4628 26.5873V28.592H62.5026V35.751H68.5789V37.7964H60.2291V17.71H68.5789V19.7556H62.5026V26.6283H67.4628V26.5873Z" fill="#4B725A"/>
    <path d="M27.2407 50.5329C28.77 50.5329 29.9274 50.9829 30.6714 51.8829C31.4154 52.7829 31.7875 54.0102 31.7875 55.5239V56.0557H29.638V55.4011C29.638 54.5011 29.4728 53.7648 29.1007 53.2739C28.7287 52.7829 28.15 52.5375 27.3233 52.5375C26.4966 52.5375 25.9178 52.7829 25.5458 53.2739C25.1738 53.7648 25.0085 54.4602 25.0085 55.3602C25.0085 56.0966 25.1738 56.7511 25.5045 57.3239C25.8353 57.8966 26.2486 58.3875 26.7446 58.8784C27.2407 59.3284 27.7779 59.8193 28.398 60.2693C28.9767 60.7193 29.5141 61.2102 30.0514 61.7421C30.5474 62.2739 30.9608 62.8875 31.2915 63.5829C31.6222 64.2784 31.7875 65.0557 31.7875 65.9966C31.7875 67.5102 31.4154 68.7375 30.6714 69.6375C29.9274 70.5375 28.77 70.9875 27.1992 70.9875C25.6285 70.9875 24.4711 70.5375 23.7684 69.6375C23.0243 68.7375 22.6523 67.5102 22.6523 65.9966V64.8511H24.7605V66.1193C24.7605 67.0193 24.9671 67.7557 25.3391 68.2466C25.7111 68.7375 26.3313 68.9829 27.1166 68.9829C27.9433 68.9829 28.522 68.7375 28.894 68.2466C29.266 67.7557 29.4727 67.0602 29.4727 66.1193C29.4727 65.3829 29.3074 64.7284 28.9767 64.1966C28.646 63.6648 28.2326 63.1329 27.7366 62.6829C27.2407 62.2329 26.7033 61.7421 26.1246 61.2921C25.5458 60.8421 25.0085 60.3512 24.5124 59.8193C24.0164 59.2875 23.6031 58.6739 23.2724 57.9784C22.9418 57.2829 22.7764 56.5057 22.7764 55.5648C22.7764 54.0102 23.1484 52.7829 23.8924 51.8829C24.5951 50.9829 25.7112 50.5329 27.2407 50.5329Z" fill="#4B725A"/>
    <path d="M43.3168 66.7329L42.5315 70.7829H40.4647L44.3502 50.6966H47.6157L51.5012 70.7829H49.2277L48.4424 66.7329H43.3168ZM43.6062 64.8102H48.1117L45.8383 53.2329L43.6062 64.8102Z" fill="#4B725A"/>
    <path d="M60.4594 70.7829V50.6966H62.7328V68.7375H68.5197V70.7829H60.4594Z" fill="#4B725A"/>
    </g>
    <defs>
    <clipPath id="clip0_1_2">
    <rect width="90.9375" height="90" fill="white"/>
    </clipPath>
    </defs>
</svg>